# xmcd
#
# Track frame offsets:
#	150
#	13897
#	28898
#	40548
#	53487
#	67164
#	78780
#	90396
#	102360
#	113878
#	124874
#	136469
#	150119
#	160711
#	170550
#	185446
#	199667
#	209625
#	230352
#	257139
#	279663
#	293215
#	304308
#	319253
#
# Disc length: 4468 seconds
#
# Revision: 0
# Processed by: cddbd v1.5.2PL0 Copyright (c) Steve Scherf et al.
# Submitted via: EasyCDDAExtractor 16.0.1.1
#
DISCID=51117218
DTITLE=Screamin' Jay Hawkins - Screamin' The Blues and Itty Bitty Pretty One
DYEAR=1979
DGENRE=Rhythm and Blues
TTITLE0=Not Anymore
TTITLE1=Please Try ToUnderstand
TTITLE2=Baptize Me In Wine
TTITLE3=This Is All
TTITLE4=She Put The Wammee On Me
TTITLE5=Well I Tried
TTITLE6=You're All Of My Life To Me
TTITLE7=I Hear Voices
TTITLE8=Talk About Me
TTITLE9=Just Don't Care
TTITLE10=The Whammy
TTITLE11=Poor Folks
TTITLE12=Your Kind Of Love
TTITLE13=All Night
TTITLE14=Monkberry Moon Delight
TTITLE15=Sweet Ginny
TTITLE16=What Good Is It (pt 1)
TTITLE17=What Good Is It (Pt 2)
TTITLE18=Same Damn Thing
TTITLE19=What's Gonna Happen On The Eight Day
TTITLE20=We Love
TTITLE21=Itty Bitty Pretty One
TTITLE22=It's Only Make Believe
TTITLE23=I Don't Know
EXTD=
EXTT0=
EXTT1=
EXTT2=
EXTT3=
EXTT4=
EXTT5=
EXTT6=
EXTT7=
EXTT8=
EXTT9=
EXTT10=
EXTT11=
EXTT12=
EXTT13=
EXTT14=
EXTT15=
EXTT16=
EXTT17=
EXTT18=
EXTT19=
EXTT20=
EXTT21=
EXTT22=
EXTT23=
PLAYORDER=
